<?xml version="1.0" standalone="no"?>
<!DOCTYPE svg PUBLIC "-//W3C//DTD SVG 20010904//EN"
 "http://www.w3.org/TR/2001/REC-SVG-20010904/DTD/svg10.dtd">
<svg version="1.0" xmlns="http://www.w3.org/2000/svg"
 width="512.000000pt" height="512.000000pt" viewBox="0 0 512.000000 512.000000"
 preserveAspectRatio="xMidYMid meet">
<metadata>
Created by potrace 1.14, written by Peter Selinger 2001-2017
</metadata>
<g transform="translate(0.000000,512.000000) scale(0.100000,-0.100000)"
fill="#000000" stroke="none">
<path d="M4734 5034 c-5 -2 -36 -5 -69 -8 -69 -5 -187 -21 -192 -26 -2 -2 -6
-3 -10 -4 -5 -1 -12 -4 -18 -7 -5 -3 -17 -5 -25 -4 -8 0 -51 -12 -95 -28 -44
-16 -84 -30 -90 -31 -56 -16 -216 -97 -285 -145 -50 -35 -330 -303 -330 -316
0 -2 -35 -39 -77 -83 -43 -43 -111 -114 -151 -156 -45 -47 -78 -74 -85 -69 -7
4 -46 8 -87 9 -139 5 -623 25 -675 29 -22 1 -49 3 -59 4 -16 1 -11 10 27 46
65 64 80 132 41 193 -9 15 -70 80 -135 144 -126 125 -148 137 -221 121 -26 -6
-58 -29 -112 -81 -42 -40 -76 -77 -76 -82 0 -6 -4 -10 -8 -10 -12 0 -292 -281
-292 -292 0 -5 -69 -6 -152 -3 -84 3 -225 7 -313 10 -88 3 -223 7 -300 10
-182 6 -405 7 -430 2 -11 -3 -40 -8 -65 -12 -100 -16 -205 -90 -241 -169 -50
-113 33 -246 193 -312 27 -10 48 -23 48 -27 0 -5 4 -6 9 -3 4 3 39 -3 76 -14
37 -11 70 -19 74 -18 7 1 58 -11 81 -19 8 -3 20 -7 25 -8 6 -2 30 -8 55 -15
25 -7 52 -14 60 -15 8 -2 15 -4 15 -5 0 -1 8 -4 50 -14 11 -2 31 -9 45 -14 14
-5 28 -10 32 -11 4 -1 13 -3 20 -5 43 -13 235 -68 243 -70 29 -8 132 -38 145
-43 8 -3 22 -7 30 -9 8 -2 60 -17 115 -35 55 -17 143 -44 195 -59 52 -16 114
-36 138 -44 23 -8 42 -12 42 -9 0 4 5 2 12 -5 7 -7 24 -12 39 -12 15 0 30 -4
33 -9 5 -7 30 -15 90 -27 11 -3 25 -9 33 -15 7 -6 19 -9 27 -6 7 3 23 -1 35
-9 11 -8 21 -13 21 -10 0 3 16 -2 35 -10 20 -8 40 -12 45 -9 6 4 10 1 10 -6 0
-7 3 -9 7 -6 3 4 11 2 18 -3 11 -9 43 -18 73 -19 23 -2 21 -4 -320 -364 -38
-39 -68 -74 -68 -78 0 -4 -9 -11 -21 -14 -11 -4 -18 -9 -16 -12 3 -2 -18 -28
-46 -58 -29 -29 -101 -106 -162 -170 -60 -64 -136 -144 -168 -177 -31 -34 -57
-65 -57 -70 0 -5 -4 -7 -9 -3 -5 3 -12 -3 -15 -13 -4 -10 -17 -25 -31 -32 -13
-7 -23 -16 -22 -19 1 -4 -34 -44 -78 -89 -43 -46 -93 -103 -109 -128 -19 -30
-32 -42 -39 -35 -7 7 -16 7 -29 0 -10 -5 -18 -6 -18 -1 0 4 -19 8 -42 9 -52 2
-173 11 -173 13 0 3 -119 12 -172 14 -29 0 -53 4 -53 8 0 3 -22 5 -50 4 -27
-1 -50 1 -50 4 0 3 -26 6 -58 7 -31 1 -91 4 -132 7 -121 10 -195 8 -242 -4
-101 -27 -154 -106 -145 -216 5 -69 46 -167 77 -187 11 -6 20 -17 20 -24 0 -7
7 -13 15 -13 7 0 18 -6 22 -13 4 -7 25 -23 45 -37 21 -14 38 -28 38 -32 0 -5
7 -8 15 -8 8 0 15 -4 15 -9 0 -5 9 -13 20 -16 11 -3 26 -13 34 -20 19 -19 415
-275 425 -275 4 0 15 -8 23 -17 13 -14 15 -38 13 -113 -3 -84 -6 -98 -29 -126
-35 -44 -76 -123 -76 -146 0 -26 40 -17 103 22 26 16 51 30 54 30 3 0 11 7 17
15 9 12 37 17 117 20 l106 4 22 -39 c12 -22 21 -43 21 -46 -1 -4 5 -11 14 -16
9 -5 14 -13 11 -19 -4 -5 -1 -9 4 -9 6 0 11 -7 11 -15 0 -8 4 -15 8 -15 5 0
14 -11 20 -25 7 -14 16 -31 22 -38 5 -7 55 -81 110 -165 102 -155 110 -167
143 -203 9 -10 17 -22 17 -25 0 -10 81 -86 110 -105 14 -9 47 -23 74 -32 126
-43 228 -4 275 105 17 40 19 64 16 165 -1 65 -4 118 -5 118 -1 0 -3 32 -5 70
-1 39 -6 104 -10 145 -4 41 -9 91 -10 110 -2 19 -6 69 -10 110 -4 41 -7 90 -7
108 0 17 -5 32 -10 32 -6 0 -6 6 1 14 7 8 8 17 4 19 -5 3 -8 26 -8 51 1 25 -1
46 -4 46 -3 0 -6 15 -7 33 -1 29 6 38 41 63 38 26 159 138 357 326 38 38 74
68 80 68 5 0 6 5 3 10 -3 6 -3 10 2 10 8 0 75 61 229 208 49 48 148 141 218
207 189 176 227 212 271 255 41 40 72 53 61 25 -3 -8 -2 -15 3 -15 4 0 8 -6 8
-12 0 -7 18 -71 40 -143 22 -71 50 -164 62 -205 13 -41 25 -82 28 -90 6 -16
27 -85 62 -205 11 -38 29 -101 41 -140 12 -38 26 -83 30 -100 5 -16 21 -68 35
-115 15 -47 28 -89 29 -95 1 -5 10 -37 20 -70 10 -33 19 -64 21 -70 8 -35 19
-71 24 -80 3 -5 6 -14 7 -20 6 -29 34 -127 39 -135 3 -5 8 -18 10 -27 2 -10
11 -45 20 -78 9 -33 18 -67 20 -75 2 -8 4 -15 5 -15 1 0 3 -9 5 -20 11 -54 71
-218 102 -278 38 -72 131 -167 163 -167 10 0 21 -4 24 -9 9 -15 91 -4 133 18
66 33 121 119 142 222 8 36 10 110 6 205 -3 82 -8 232 -11 334 -6 206 -10 309
-18 550 l-7 165 43 35 c24 19 67 60 96 92 28 32 52 56 52 54 0 -2 61 57 135
132 147 148 170 182 161 243 -7 49 -25 75 -110 158 -37 35 -66 68 -66 74 0 6
-2 8 -5 5 -3 -3 -25 14 -49 37 -81 79 -155 71 -248 -28 l-38 -39 -1 43 c-1 24
-3 69 -4 99 -6 132 -17 421 -19 485 0 39 -5 73 -11 77 -6 5 -6 8 1 8 7 0 10
12 7 28 -2 15 -5 49 -6 77 -2 48 -2 50 58 106 33 32 98 94 144 138 46 45 88
81 94 81 6 0 8 3 5 6 -4 3 12 22 35 42 176 159 287 285 343 392 16 30 33 58
37 61 5 3 8 9 8 13 -1 8 8 33 32 86 11 24 20 49 22 55 1 5 7 22 13 38 7 15 14
38 16 50 3 12 10 38 16 57 11 33 14 49 24 103 2 12 7 36 10 52 17 81 24 295
10 317 -3 4 -8 21 -10 36 -6 33 -52 95 -65 87 -5 -4 -9 -2 -9 3 0 17 -168 46
-206 36z"/>
</g>
</svg>
